HIERARCHY
ROOT Hips
{
 OFFSET 0.000000 0.000000 0.000000
 CHANNELS 6 Xposition Yposition Zposition Yrotation Xrotation Zrotation
 JOINT Chest
 {
  OFFSET 0.000000 9.585900 0.002600
  CHANNELS 3 Yrotation Xrotation Zrotation
  JOINT Chest2
  {
   OFFSET 0.000000 9.601200 -0.005300
   CHANNELS 3 Yrotation Xrotation Zrotation
   JOINT Chest3
   {
    OFFSET 0.000000 9.561800 0.000000
    CHANNELS 3 Yrotation Xrotation Zrotation
    JOINT Chest4
    {
     OFFSET 0.000000 9.552100 0.000000
     CHANNELS 3 Yrotation Xrotation Zrotation
     JOINT Neck
     {
      OFFSET 0.000000 14.453000 0.000000
      CHANNELS 3 Yrotation Xrotation Zrotation
      JOINT Head
      {
       OFFSET 0.000000 8.936500 -0.011300
       CHANNELS 3 Yrotation Xrotation Zrotation
       End Site
       {
        OFFSET 0.000000 17.073600 -0.006000
       }
      }
     }
     JOINT RightCollar
     {
      OFFSET -2.921100 9.558500 0.000000
      CHANNELS 3 Yrotation Xrotation Zrotation
      JOINT RightShoulder
      {
       OFFSET -13.519700 0.000000 0.000000
       CHANNELS 3 Yrotation Xrotation Zrotation
       JOINT RightElbow
       {
        OFFSET 0.000000 -29.696600 0.000000
        CHANNELS 3 Yrotation Xrotation Zrotation
        JOINT RightWrist
        {
         OFFSET 0.000000 -24.004700 0.000000
         CHANNELS 3 Yrotation Xrotation Zrotation
         End Site
         {
          OFFSET 0.000000 -17.728500 0.000000
         }
        }
       }
      }
     }
     JOINT LeftCollar
     {
      OFFSET 2.921100 9.558500 0.000000
      CHANNELS 3 Yrotation Xrotation Zrotation
      JOINT LeftShoulder
      {
       OFFSET 13.519700 0.000000 0.000000
       CHANNELS 3 Yrotation Xrotation Zrotation
       JOINT LeftElbow
       {
        OFFSET 0.000000 -29.696600 0.000000
        CHANNELS 3 Yrotation Xrotation Zrotation
        JOINT LeftWrist
        {
         OFFSET 0.000000 -24.004700 0.000000
         CHANNELS 3 Yrotation Xrotation Zrotation
         End Site
         {
          OFFSET 0.000000 -17.728500 0.000000
         }
        }
       }
      }
     }
    }
   }
  }
 }
 JOINT RightHip
 {
  OFFSET -7.771700 -0.012900 -0.001300
  CHANNELS 3 Yrotation Xrotation Zrotation
  JOINT RightKnee
  {
   OFFSET 0.000000 -40.869800 0.001200
   CHANNELS 3 Yrotation Xrotation Zrotation
   JOINT RightAnkle
   {
    OFFSET 0.000000 -39.717900 0.002100
    CHANNELS 3 Yrotation Xrotation Zrotation
    JOINT RightToe
    {
     OFFSET 0.000000 -4.965400 11.033500
     CHANNELS 3 Yrotation Xrotation Zrotation
     End Site
     {
      OFFSET 0.000000 -1.423100 5.872300
     }
    }
   }
  }
 }
 JOINT LeftHip
 {
  OFFSET 7.771700 -0.012900 -0.001300
  CHANNELS 3 Yrotation Xrotation Zrotation
  JOINT LeftKnee
  {
   OFFSET 0.000000 -40.869800 0.001200
   CHANNELS 3 Yrotation Xrotation Zrotation
   JOINT LeftAnkle
   {
    OFFSET 0.000000 -39.717900 0.002100
    CHANNELS 3 Yrotation Xrotation Zrotation
    JOINT LeftToe
    {
     OFFSET 0.000000 -4.965400 11.033500
     CHANNELS 3 Yrotation Xrotation Zrotation
     End Site
     {
      OFFSET 0.000000 -1.423100 5.872300
     }
    }
   }
  }
 }
}
MOTION
Frames: 5
Frame Time: 0.008333
0.000000 85.388000 0.000000 0.000000 -5.767877 0.000000 0.000000 11.653817 0.000000 0.000000 -5.885947 0.000000 0.000000 -0.000000 0.000000 0.000000 -0.000000 0.000000 0.000000 12.528835 0.000000 0.000000 0.711642 0.000000 0.000000 -0.000000 0.000000 0.000000 0.000000 -90.000000 0.000000 -2.309062 0.000000 0.000000 2.309062 0.000000 0.000000 -0.000000 0.000000 0.000000 -0.000000 90.000000 0.000000 -2.309062 0.000000 0.000000 2.309062 0.000000 0.000000 8.520406 0.000000 0.000000 1.905762 0.000000 -0.000000 -4.658285 0.000000 0.000000 -0.000000 0.000000 0.000000 8.520406 0.000000 0.000000 1.905762 0.000000 -0.000000 -4.658285 0.000000 0.000000 -0.000000 0.000000
-8.577855 56.150235 18.119651 -175.912486 -31.638434 -10.360543 -1.404619 13.542661 6.682070 -0.996000 7.782359 2.194543 -1.200475 9.733413 2.728071 -0.995965 7.782302 2.194625 1.497826 27.844538 -2.398963 2.216278 5.090203 -3.002727 3.983777 -0.816352 -1.900026 -3.459054 -11.691812 1.267091 74.293471 -41.407147 -54.543708 9.978799 9.577943 -16.032109 -10.027872 -0.070046 -5.334623 -3.548932 -10.398126 1.577117 -71.210890 -35.132162 61.757860 -0.803533 1.826711 0.329271 -19.186615 -27.685045 5.680012 55.190404 87.123831 53.554688 3.349107 -26.536945 -3.541195 -1.239224 2.788808 -0.554645 -11.107975 -43.441051 10.743315 176.761479 74.453299 174.491508 -1.807809 -25.309119 1.582308 -0.076229 -0.706281 -0.038750
-8.578385 56.156583 18.120563 -175.922992 -31.618408 -10.353975 -1.416305 13.527506 6.685520 -1.004058 7.766551 2.193516 -1.233873 9.674778 2.734566 -0.984941 7.806253 2.180785 1.497306 27.811249 -2.419309 2.218654 5.072189 -3.026822 3.984642 -0.866512 -1.920919 -3.449643 -11.675766 1.302032 74.188740 -41.361163 -54.354549 9.982787 9.547304 -16.083826 -10.009511 -0.100199 -5.330320 -3.518056 -10.383350 1.543627 -71.132200 -35.090053 61.605667 -0.789044 1.813711 0.384074 -19.179692 -27.700947 5.681872 55.050959 87.113122 53.415796 3.349884 -26.532261 -3.541957 -1.244368 2.790539 -0.554031 -11.104035 -43.453423 10.758068 176.769349 74.464819 174.495484 -1.821309 -25.301874 1.592789 -0.074637 -0.706126 -0.039802
-8.578702 56.163611 18.120769 -175.934897 -31.597617 -10.346168 -1.425164 13.508749 6.686268 -1.009532 7.748477 2.193445 -1.227527 9.672175 2.730113 -1.011275 7.739936 2.193343 1.501472 27.821606 -2.448151 2.214317 5.048285 -3.045355 4.000838 -0.828572 -1.940875 -3.462852 -11.706586 1.338546 74.077168 -41.317611 -54.161673 9.995983 9.509985 -16.134428 -9.994624 -0.092773 -5.332823 -3.484355 -10.326753 1.502608 -71.076328 -35.063487 61.506154 -0.759964 1.846554 0.437397 -19.169025 -27.718036 5.682282 54.915067 87.102850 53.282858 3.348635 -26.526512 -3.540132 -1.246628 2.790742 -0.553599 -11.097219 -43.466759 10.771018 176.779386 74.476305 174.502873 -1.828543 -25.290459 1.599853 -0.076848 -0.711441 -0.040615
-8.579397 56.170015 18.121102 -175.956290 -31.570338 -10.328103 -1.427905 13.481064 6.681423 -1.013053 7.731391 2.193261 -1.222322 9.669797 2.726366 -1.012983 7.731427 2.193313 1.492064 27.764147 -2.462599 2.206252 5.016760 -3.062624 3.994187 -0.850313 -1.949345 -3.474881 -11.736115 1.373213 73.967497 -41.277390 -53.973916 9.991917 9.473104 -16.178284 -10.005260 -0.158999 -5.296257 -3.445687 -10.251607 1.446831 -71.043130 -35.048403 61.451537 -0.745582 1.866860 0.466253 -19.151840 -27.748352 5.683011 54.817339 87.099501 53.186858 3.342615 -26.517281 -3.538170 -1.240958 2.785066 -0.551672 -11.094620 -43.482913 10.801143 176.844983 74.490888 174.545011 -1.847035 -25.286583 1.618122 -0.073931 -0.712215 -0.038638
